<?xml version="1.0" encoding="utf-8"?>
<!-- Generator: Adobe Illustrator 19.0.0, SVG Export Plug-In . SVG Version: 6.00 Build 0)  -->
<svg version="1.1" id="Layer_1" xmlns="http://www.w3.org/2000/svg" xmlns:xlink="http://www.w3.org/1999/xlink" x="0px" y="0px"
	 viewBox="0 0 595.3 841.9" style="enable-background:new 0 0 595.3 841.9;" xml:space="preserve">
<style type="text/css">
	.st0{stroke:#000000;stroke-miterlimit:10;}
	.st1{fill:#FFFFFF;stroke:#000000;stroke-miterlimit:10;}
	.st2{fill:#F7F7F7;stroke:#000000;stroke-miterlimit:10;}
</style>
<path class="st0" d="M251.6,288.1c0,0,6,5.8,48.1-15.4c0,0,25.1-11.5,36.8,3.5c0,0-32.9,3.9-24.6,12.6c0,0,21.6,17.3,27.6,20.6
	s8.3,0,8.3,0s-0.2,9.5-18.9,20.3c0,0-13.3,7.1-6.9,16.5c0,0-4.3,9.2-17.6,17.8c-2.9,1.9,0.9,0.8,5.7-12.4c0,0,0.1-6.5-6.2-5.1
	c0,0,5.1-13.2-5.3-13c0,0-16.8-0.3-9.9,14.8c0,0-8.8,13.3-18.8,18.4c0,0,10.7-12.4,5.8-16.6c0,0-2.7-1.2-8.1-0.7
	c0,0,9.2-11.8,5.6-16.5c0,0-16.6-10.5-16-11.5c0.6-1,2.8-7,12.5-19.7c0,0-0.1-4.4-6.4-3.8C263.3,297.8,257.6,299.3,251.6,288.1z"/>
<path class="st1" d="M281.1,301.8c0,0-14.1,9.3-14.7,16.7c0,0,6.8,12.4,18.5,9.4C284.9,327.9,276.1,315.6,281.1,301.8z"/>
<path class="st0" d="M277.2,309.5c0,0-6.1,3.3-6.5,8.4c0,0,3.3,6.4,8.6,5.7C279.3,323.5,275.3,318.5,277.2,309.5z"/>
<path class="st1" d="M290.7,301.4c0,0-13.3,11.6,0.2,24.8c1.4,1.4,3.2,2.1,5.1,2.2c4.6,0.3,13.1,0.1,15.9-8
	c3.8-11.3-4.4-17.8-4.4-17.8s0.4,10.8-8.5,10.2C290.2,312.1,290.7,301.4,290.7,301.4z"/>
<path class="st0" d="M289.7,312c0,0,9.2,12,19.4,0.7c0,0,3.6,12.9-9.1,13.2C287.3,326.2,289.7,312,289.7,312z"/>
<path class="st2" d="M314.9,299.8c0,0,17,10.6,18.8,16.7c0.9,3.3-6.4,9.6-21.9,11.8C311.8,328.4,323.4,312.8,314.9,299.8z"/>
<path class="st0" d="M320.2,306.6c0,0,8.9,5.7,8.4,9.9s-5.1,7.1-10.5,7.1C318.1,323.6,322.3,320.3,320.2,306.6z"/>
</svg>
